Patient4_TMGait_0pt6_01_left_47_GRF.mot
version=1
nRows=64
nColumns=19
inDegrees=no
endheader
time	F1x	F1y	F1z	M1x	M1y	M1z	F2x	F2y	F2z	M2x	M2y	M2z	EC1x	EC1y	EC1z	EC2x	EC2y	EC2z
57.18	-6.7817	9.527	-4.6757	-1.4987	2.873	18.5571	-22.838	694.4656	-65.6826	288.2162	79.5506	738.1763	-0.0592	0.0182	-0.0073	-0.0462	0.0165	0.9585
57.1926	-4.4796	6.9212	-3.1935	-1.2031	2.0531	12.9581	-22.4603	688.7299	-62.8019	285.0574	75.6255	728.7396	-0.0592	0.0182	-0.0073	-0.0462	0.0165	0.9585
57.2051	-2.6178	4.775	-1.9158	-0.97664	1.2889	8.3644	-21.5331	685.5124	-60.0898	283.0971	71.7047	721.0484	-0.0592	0.0182	-0.0073	-0.0462	0.0165	0.9585
57.2177	-1.2706	3.2104	-0.92621	-0.82837	0.65442	4.9961	-20.1086	686.3061	-57.6791	283.0485	67.9892	716.713	-0.0592	0.0182	-0.0073	-0.0462	0.0165	0.9585
57.2303	-0.38509	2.2092	-0.23619	-0.75184	0.18371	2.7706	-18.2574	692.0118	-55.6128	285.339	64.5643	716.7169	-0.0592	0.0182	-0.0073	-0.0462	0.0165	0.9585
57.2429	0.093757	1.6945	0.19682	-0.73168	-0.14326	1.5127	-15.9841	702.6914	-53.8808	290.0087	61.4085	721.1578	-0.0592	0.0182	-0.0073	-0.0462	0.0165	0.9585
57.2554	0.30374	1.515	0.42777	-0.741	-0.34419	0.91496	-13.2462	717.5525	-52.4528	296.7056	58.4424	729.2727	-0.0592	0.0182	-0.0073	-0.0462	0.0165	0.9585
57.268	0.29119	1.5131	0.52025	-0.75029	-0.46881	0.73176	-9.9523	735.097	-51.2909	304.7555	55.5564	739.6084	-0.0592	0.0182	-0.0073	-0.0462	0.0165	0.9585
57.2806	0.16341	1.5046	0.52385	-0.72283	-0.53974	0.66255	-6.0119	753.4164	-50.3829	313.2915	52.665	750.3398	-0.0592	0.0182	-0.0073	-0.0462	0.0165	0.9585
57.2931	-0.06094	1.3424	0.48634	-0.62545	-0.59905	0.52148	-1.4212	770.5413	-49.7207	321.41	49.7249	759.6432	-0.0592	0.0182	-0.0073	-0.0462	0.0165	0.9585
57.3057	-0.31037	0.86432	0.43246	-0.42059	-0.65186	0.071944	3.6672	784.706	-49.3119	328.2894	46.7813	765.9669	-0.0592	0.0182	-0.0073	-0.0462	0.0165	0.9585
57.3183	-0.57545	-0.033403	0.39141	-0.076992	-0.71502	-0.83225	8.9452	794.5277	-49.169	333.2731	43.9563	768.1995	-0.0592	0.0182	-0.0073	-0.0462	0.0165	0.9585
57.3309	-0.79191	-1.4223	0.36503	0.4279	-0.76902	-2.3098	14.0736	799.0682	-49.2968	335.912	41.3926	765.6548	-0.0592	0.0182	-0.0073	-0.0462	0.0165	0.9585
57.3434	-0.9101	-3.309	0.35924	1.0961	-0.7977	-4.3757	18.7621	797.928	-49.6743	336.0058	39.1954	758.1317	-0.0592	0.0182	-0.0073	-0.0462	0.0165	0.9585
57.356	-0.83645	-5.5651	0.35592	1.8842	-0.7533	-6.8903	22.8752	791.2865	-50.2427	333.6244	37.3845	745.9044	-0.0592	0.0182	-0.0073	-0.0462	0.0165	0.9585
57.3686	-0.43807	-7.882	0.33658	2.6857	-0.56905	-9.5143	26.3293	779.9224	-50.926	329.1054	35.9377	729.7799	-0.0592	0.0182	-0.0073	-0.0462	0.0165	0.9585
57.3811	0.42404	-9.6598	0.25477	3.2933	-0.15007	-11.5481	29.1304	765.1215	-51.6715	323.0076	34.8243	710.9912	-0.0592	0.0182	-0.0073	-0.0462	0.0165	0.9585
57.3937	1.9247	-9.962	0.078578	3.3802	0.59876	-11.9203	31.2958	748.5385	-52.4592	316.0376	34.0318	691.1106	-0.0592	0.0182	-0.0073	-0.0462	0.0165	0.9585
57.4063	4.194	-7.409	-0.24213	2.469	1.772	-9.0268	32.8819	731.9011	-53.2926	308.9303	33.5472	671.7432	-0.0592	0.0182	-0.0073	-0.0462	0.0165	0.9585
57.4189	7.3215	-0.22	-0.73082	-0.059609	3.4232	-0.83671	33.9708	716.7524	-54.1678	302.335	33.3413	654.3035	-0.0592	0.0182	-0.0073	-0.0462	0.0165	0.9585
57.4314	11.2166	13.727	-1.4052	-4.9396	5.5362	15.0883	34.6502	704.1596	-55.0445	296.6947	33.3501	639.7636	-0.0592	0.0182	-0.0073	-0.0462	0.0165	0.9585
57.444	15.5356	36.5625	-2.2349	-12.9092	7.9537	41.1928	35.0114	694.4444	-55.8377	292.14	33.4672	628.3973	-0.0592	0.0182	-0.0073	-0.0462	0.0165	0.9585
57.4566	19.5088	69.94	-3.1322	-24.5382	10.2974	79.4006	35.1221	687.0468	-56.4008	288.4355	33.5333	619.6823	-0.0592	0.0182	-0.0073	-0.0462	0.0165	0.9585
57.4691	21.8044	114.1533	-3.9095	-39.927	11.8817	130.085	35.074	680.489	-56.5518	284.9798	33.3555	612.2325	-0.0592	0.0182	-0.0073	-0.0462	0.0165	0.9585
57.4817	20.6746	167.2075	-4.2511	-58.3797	11.7435	191.0037	34.9364	672.6807	-56.0657	280.931	32.7096	604.1018	-0.0592	0.0182	-0.0073	-0.0462	0.0165	0.9585
57.4943	14.9111	224.2847	-3.7833	-78.2064	9.0415	256.6785	34.7809	661.3018	-54.7238	275.3725	31.3855	593.0973	-0.0592	0.0182	-0.0073	-0.0462	0.0165	0.9585
57.5069	5.5371	278.5826	-1.7737	-97.0023	3.3321	319.2787	34.6254	644.2998	-52.3725	267.5107	29.2552	577.2783	-0.0592	0.0182	-0.0073	-0.0462	0.0165	0.9585
57.5194	-5.0828	324.8359	1.9516	-112.9177	-4.6818	372.5126	34.5021	620.3045	-48.9984	256.835	26.3154	555.3083	-0.0592	0.0182	-0.0073	-0.0462	0.0165	0.9585
57.532	-15.1071	361.6902	6.5565	-125.5006	-13.4358	414.5298	34.3756	588.7866	-44.7848	243.1595	22.7398	526.6542	-0.0592	0.0182	-0.0073	-0.0462	0.0165	0.9585
57.5446	-23.476	390.5055	11.4504	-135.256	-21.8522	446.8057	34.1987	549.8773	-40.0729	226.5576	18.8335	491.402	-0.0592	0.0182	-0.0073	-0.0462	0.0165	0.9585
57.5571	-29.691	413.79	15.7963	-143.1038	-28.8513	472.1486	33.8103	504.3245	-35.1086	207.3451	14.8538	450.2372	-0.0592	0.0182	-0.0073	-0.0462	0.0165	0.9585
57.5697	-33.8092	434.0114	19.4265	-149.9179	-34.2298	493.4717	32.9807	453.3412	-30.061	186.0258	11.0247	404.283	-0.0592	0.0182	-0.0073	-0.0462	0.0165	0.9585
57.5823	-35.9658	453.1404	22.0969	-156.4009	-37.8006	512.9463	31.4707	398.5646	-25.0209	163.2667	7.5084	355.0526	-0.0592	0.0182	-0.0073	-0.0462	0.0165	0.9585
57.5949	-36.4784	472.8364	24.1728	-163.0935	-40.0593	532.4911	29.0782	341.9118	-20.1302	139.8429	4.4972	304.3025	-0.0592	0.0182	-0.0073	-0.0462	0.0165	0.9585
57.6074	-35.5625	494.4646	25.8859	-170.432	-41.3821	553.6181	25.7405	285.4853	-15.5531	116.6014	2.1508	253.9158	-0.0592	0.0182	-0.0073	-0.0462	0.0165	0.9585
57.62	-33.6369	519.0027	27.8313	-178.689	-42.5566	577.511	21.5768	231.4411	-11.492	94.4039	0.58296	205.805	-0.0592	0.0182	-0.0073	-0.0462	0.0165	0.9585
57.6326	-31.1774	546.7652	30.2761	-187.9346	-44.0584	604.5313	16.9458	181.7297	-8.0844	74.0358	-0.24829	161.6394	-0.0592	0.0182	-0.0073	-0.0462	0.0165	0.9585
57.6451	-28.6624	577.6106	33.5628	-198.0851	-46.4037	634.6212	12.2722	137.8799	-5.3962	56.1043	-0.47864	122.738	-0.0592	0.0182	-0.0073	-0.0462	0.0165	0.9585
57.6577	-26.3842	611.1608	37.5015	-209.0199	-49.4993	667.3773	8.0062	100.7335	-3.3888	40.9426	-0.32924	89.7782	-0.0592	0.0182	-0.0073	-0.0462	0.0165	0.9585
57.6703	-24.5168	646.7317	41.8322	-220.5348	-53.1224	702.0622	4.3825	70.4793	-1.966	28.6149	0.014366	62.9297	-0.0592	0.0182	-0.0073	-0.0462	0.0165	0.9585
57.6829	-23.1082	683.1841	46.0789	-232.2909	-56.789	737.4383	1.5521	46.7345	-1.0087	18.9607	0.39749	41.844	-0.0592	0.0182	-0.0073	-0.0462	0.0165	0.9585
57.6954	-22.0669	718.9717	50.0252	-243.7978	-60.232	771.8515	-0.48112	28.8082	-0.40324	11.6894	0.72387	25.9387	-0.0592	0.0182	-0.0073	-0.0462	0.0165	0.9585
57.708	-21.3404	752.2939	53.4752	-254.4711	-63.2134	803.4055	-1.7222	15.8577	-0.050193	6.4506	0.92183	14.4585	-0.0592	0.0182	-0.0073	-0.0462	0.0165	0.9585
57.7206	-20.7893	781.3391	56.4343	-263.7056	-65.6806	830.2105	-2.2454	7.055	0.12233	2.898	0.96555	6.6663	-0.0592	0.0182	-0.0073	-0.0462	0.0165	0.9585
57.7331	-20.3191	804.5329	58.8463	-270.9722	-67.536	850.6905	-2.2344	1.6305	0.17785	0.7111	0.88174	1.88	-0.0592	0.0182	-0.0073	-0.0462	0.0165	0.9585
57.7457	-19.7761	820.7415	60.7036	-275.8864	-68.7285	863.7231	-1.9355	-1.2221	0.17481	-0.4381	0.72641	-0.6146	-0.0592	0.0182	-0.0073	-0.0462	0.0165	0.9585
57.7583	-19.0712	829.492	61.9514	-278.2848	-69.1797	868.8929	-1.5383	-2.2844	0.13961	-0.86762	0.5605	-1.5059	-0.0592	0.0182	-0.0073	-0.0462	0.0165	0.9585
57.7709	-18.0616	831.0059	62.5636	-278.2392	-68.8415	866.4972	-1.1266	-2.2475	0.094303	-0.85402	0.41035	-1.422	-0.0592	0.0182	-0.0073	-0.0462	0.0165	0.9585
57.7834	-16.6977	826.1022	62.5583	-276.0229	-67.735	857.4609	-0.78284	-1.6179	0.053111	-0.60384	0.29335	-0.79488	-0.0592	0.0182	-0.0073	-0.0462	0.0165	0.9585
57.796	-14.9856	816.0173	62.0175	-272.0467	-65.972	843.1238	-0.49969	-0.76633	0.019082	-0.26297	0.20603	0.026654	-0.0592	0.0182	-0.0073	-0.0462	0.0165	0.9585
57.8086	-13.0021	802.2146	61.1085	-266.796	-63.7548	825.0584	-0.31091	0.097941	-0.0076517	0.08341	0.15279	0.86525	-0.0592	0.0182	-0.0073	-0.0462	0.0165	0.9585
57.8211	-10.856	786.271	59.9892	-260.7933	-61.2885	804.9334	-0.17882	0.83293	-0.023647	0.38307	0.11661	1.5559	-0.0592	0.0182	-0.0073	-0.0462	0.0165	0.9585
57.8337	-8.6898	769.7071	58.8273	-254.5468	-58.7893	784.3195	-0.11078	1.415	-0.03222	0.62217	0.09851	2.0891	-0.0592	0.0182	-0.0073	-0.0462	0.0165	0.9585
57.8463	-6.625	753.8956	57.7196	-248.5182	-56.4052	764.6162	-0.071944	1.829	-0.033904	0.79717	0.085124	2.4385	-0.0592	0.0182	-0.0073	-0.0462	0.0165	0.9585
57.8589	-4.7521	739.9161	56.7727	-243.0768	-54.2741	746.8943	-0.064641	2.1069	-0.030959	0.9195	0.074618	2.6501	-0.0592	0.0182	-0.0073	-0.0462	0.0165	0.9585
57.8714	-3.117	728.4927	56.0303	-238.475	-52.4609	731.8271	-0.074581	2.2862	-0.027703	1.004	0.065855	2.7658	-0.0592	0.0182	-0.0073	-0.0462	0.0165	0.9585
57.884	-1.7189	719.9628	55.5448	-234.836	-51.0145	719.6827	-0.097882	2.3868	-0.031947	1.0601	0.067119	2.8017	-0.0592	0.0182	-0.0073	-0.0462	0.0165	0.9585
57.8966	-0.47871	714.3335	55.2977	-232.1727	-49.8927	710.3927	-0.1462	2.4279	-0.046574	1.0932	0.087939	2.7802	-0.0592	0.0182	-0.0073	-0.0462	0.0165	0.9585
57.9091	0.69118	711.3464	55.2856	-230.41	-49.0569	703.6284	-0.20372	2.3919	-0.075861	1.0959	0.13167	2.6732	-0.0592	0.0182	-0.0073	-0.0462	0.0165	0.9585
57.9217	1.942	710.6129	55.4512	-229.428	-48.401	698.9277	-0.297	2.2601	-0.11696	1.0551	0.20463	2.4677	-0.0592	0.0182	-0.0073	-0.0462	0.0165	0.9585
57.9343	3.4348	711.7165	55.7665	-229.0913	-47.8421	695.8283	-0.40268	1.9568	-0.17454	0.93879	0.30743	2.0611	-0.0592	0.0182	-0.0073	-0.0462	0.0165	0.9585
57.9469	5.3514	714.2882	56.1649	-229.2758	-47.2546	693.9014	-0.54033	1.4258	-0.23944	0.71441	0.43709	1.4113	-0.0592	0.0182	-0.0073	-0.0462	0.0165	0.9585
57.9594	7.828	718.0564	56.6322	-229.8806	-46.5716	692.8414	-0.67369	0.56839	-0.30974	0.33805	0.58033	0.40661	-0.0592	0.0182	-0.0073	-0.0462	0.0165	0.9585
57.972	10.9725	722.8681	57.1251	-230.8402	-45.7102	692.4769	-0.80124	-0.67636	-0.37295	-0.22299	0.71561	-1.0213	-0.0592	0.0182	-0.0073	-0.0462	0.0165	0.9585
